<svg 
 xmlns="http://www.w3.org/2000/svg"
 xmlns:xlink="http://www.w3.org/1999/xlink"
 width="34px" height="50px">
<path fill-rule="evenodd"  fill="rgb(255, 255, 255)"
 d="M33.664,21.266 C33.664,21.231 33.664,21.196 33.664,21.162 L33.662,21.137 L33.662,21.124 L33.633,20.538 L33.402,15.792 C33.316,14.585 32.416,13.683 31.209,13.598 L26.457,13.367 L25.865,13.338 C25.807,13.336 25.764,13.337 25.734,13.337 C25.609,13.337 25.484,13.346 25.357,13.352 C25.391,13.015 25.412,12.676 25.412,12.330 C25.412,10.059 24.703,7.962 23.502,6.310 L23.504,6.309 C23.223,5.924 22.912,5.562 22.580,5.230 C22.559,5.210 22.529,5.179 22.486,5.138 L22.047,4.741 L18.523,1.544 C17.609,0.751 16.336,0.752 15.422,1.544 L11.902,4.737 L11.469,5.131 L11.459,5.139 L11.439,5.157 C11.416,5.182 11.391,5.205 11.365,5.230 C11.035,5.560 10.725,5.923 10.439,6.313 C9.242,7.962 8.533,10.059 8.533,12.331 C8.533,12.676 8.555,13.015 8.586,13.352 C8.461,13.346 8.336,13.337 8.211,13.337 C8.180,13.337 8.137,13.336 8.078,13.338 L7.488,13.367 L2.734,13.598 C1.529,13.683 0.629,14.585 0.543,15.792 L0.312,20.538 L0.283,21.124 L0.283,21.137 L0.281,21.162 C0.281,21.196 0.281,21.231 0.281,21.266 C0.281,21.734 0.318,22.209 0.393,22.686 C0.592,23.942 1.049,25.187 1.754,26.335 C1.068,26.706 0.603,27.393 0.543,28.239 L0.312,32.985 L0.283,33.571 L0.283,33.584 L0.281,33.609 C0.281,33.644 0.281,33.679 0.281,33.714 C0.281,34.182 0.318,34.656 0.393,35.134 C0.711,37.147 1.693,39.132 3.299,40.737 C4.904,42.344 6.891,43.326 8.908,43.643 C9.385,43.719 9.857,43.754 10.324,43.754 L10.377,43.758 L11.059,43.723 L15.447,43.510 L15.447,47.747 C15.447,48.589 16.131,49.271 16.973,49.271 C17.814,49.271 18.496,48.589 18.496,47.747 L18.496,43.510 L22.887,43.723 L23.568,43.758 L23.619,43.754 C24.088,43.754 24.560,43.719 25.037,43.643 C27.055,43.326 29.039,42.344 30.645,40.737 C32.252,39.132 33.234,37.147 33.553,35.134 C33.627,34.656 33.664,34.182 33.664,33.714 C33.664,33.679 33.664,33.644 33.664,33.609 L33.662,33.584 L33.662,33.571 L33.633,32.985 L33.402,28.239 C33.342,27.393 32.877,26.706 32.191,26.335 C32.896,25.187 33.353,23.942 33.553,22.686 C33.627,22.209 33.664,21.734 33.664,21.266 ZM12.496,7.807 C12.701,7.524 12.922,7.266 13.162,7.027 C13.172,7.016 13.184,7.006 13.193,6.997 L13.609,6.618 L16.973,3.567 L20.342,6.622 L20.766,7.007 C20.752,6.995 20.764,7.006 20.785,7.026 C21.021,7.266 21.244,7.525 21.449,7.805 C22.326,9.011 22.871,10.590 22.871,12.331 C22.871,12.852 22.818,13.357 22.725,13.844 C21.275,14.334 19.891,15.175 18.711,16.354 C18.008,17.056 17.434,17.834 16.973,18.652 C16.512,17.834 15.936,17.056 15.232,16.354 C14.055,15.175 12.670,14.335 11.219,13.844 C11.127,13.358 11.074,12.853 11.074,12.332 C11.072,10.591 11.619,9.011 12.496,7.807 ZM2.822,21.223 L2.850,20.660 L3.070,16.126 L7.611,15.903 L8.184,15.876 C8.166,15.877 8.182,15.876 8.211,15.876 C8.529,15.877 8.852,15.902 9.176,15.950 C9.195,15.953 9.213,15.954 9.232,15.957 C10.705,16.189 12.207,16.920 13.437,18.151 C14.443,19.155 15.109,20.342 15.447,21.544 L15.447,29.030 C15.377,28.954 15.309,28.877 15.232,28.803 C15.143,28.711 15.047,28.630 14.953,28.542 C13.398,27.094 11.529,26.195 9.627,25.895 L9.627,25.894 C9.154,25.820 8.682,25.784 8.211,25.785 C8.180,25.785 8.137,25.784 8.078,25.786 L7.488,25.815 L4.605,25.955 C3.670,24.838 3.102,23.553 2.902,22.289 C2.848,21.944 2.822,21.605 2.822,21.266 L2.822,21.223 ZM10.934,41.187 L10.383,41.214 L10.346,41.214 C10.334,41.215 10.330,41.215 10.330,41.215 C9.990,41.215 9.643,41.188 9.299,41.136 C7.828,40.904 6.326,40.174 5.096,38.942 C3.865,37.711 3.135,36.208 2.902,34.736 C2.848,34.391 2.822,34.054 2.822,33.714 L2.822,33.671 L2.850,33.108 L3.070,28.573 L3.578,28.548 L7.611,28.351 L7.963,28.335 L8.184,28.323 C8.166,28.325 8.182,28.323 8.211,28.323 C8.547,28.325 8.889,28.351 9.232,28.404 C9.678,28.474 10.125,28.596 10.566,28.757 C11.588,29.130 12.578,29.739 13.437,30.599 C13.611,30.773 13.773,30.953 13.926,31.137 C14.662,32.013 15.166,32.992 15.447,33.983 L15.447,40.966 L10.934,41.187 ZM31.123,33.714 C31.123,34.054 31.098,34.391 31.043,34.736 C30.810,36.208 30.080,37.711 28.848,38.942 C27.617,40.174 26.117,40.904 24.644,41.136 C24.301,41.188 23.955,41.215 23.615,41.215 C23.615,41.215 23.611,41.215 23.600,41.214 L23.562,41.214 L23.010,41.187 L18.496,40.966 L18.496,33.983 C18.777,32.992 19.283,32.013 20.018,31.137 C20.172,30.953 20.334,30.773 20.508,30.599 C21.367,29.739 22.357,29.130 23.379,28.757 C23.820,28.596 24.267,28.474 24.713,28.404 C25.055,28.351 25.396,28.325 25.734,28.323 C25.764,28.323 25.779,28.325 25.762,28.323 L25.982,28.335 L26.332,28.351 L30.365,28.548 L30.875,28.573 L31.096,33.108 L31.123,33.671 L31.123,33.714 ZM31.123,21.266 C31.123,21.605 31.098,21.944 31.043,22.289 C30.844,23.553 30.273,24.838 29.338,25.955 L26.457,25.815 L25.865,25.786 C25.807,25.784 25.764,25.785 25.734,25.785 C25.264,25.784 24.789,25.820 24.318,25.894 L24.318,25.895 C22.414,26.195 20.545,27.094 18.992,28.542 C18.898,28.630 18.803,28.711 18.711,28.803 C18.637,28.877 18.566,28.954 18.496,29.030 L18.496,21.544 C18.834,20.342 19.502,19.155 20.508,18.151 C21.738,16.920 23.238,16.189 24.713,15.957 C24.732,15.954 24.750,15.953 24.770,15.950 C25.094,15.902 25.416,15.877 25.734,15.876 C25.764,15.876 25.779,15.877 25.762,15.876 L26.332,15.903 L30.875,16.126 L31.096,20.660 L31.123,21.223 L31.123,21.266 Z"/>
</svg>